<svg width="660" height="480" viewBox="0 0 660 480" fill="none" xmlns="http://www.w3.org/2000/svg">
<path d="M330.448 344.852L190 263.548L330.448 182.244L470.896 263.548L330.448 344.852Z" fill="#33B6FF" stroke="#313131" stroke-linejoin="round"/>
<path d="M295 378L329.641 358L364.282 378L329.641 398L295 378Z" fill="#B0F2FF"/>
<path d="M68.8037 264L120.765 234L172.727 264L120.765 294L68.8037 264Z" fill="#F4F4F4"/>
<path d="M490 303.126L559.5 263L629 303.126L559.5 343.252L490 303.126Z" fill="#F4F4F4"/>
<path d="M332 124L366.641 104L401.282 124L366.641 144L332 124Z" fill="#6AFF96"/>
<path d="M329.5 172.613L326.613 175.5L329.5 178.387L332.387 175.5L329.5 172.613ZM330 289.5L330 288.517L329 288.517L329 289.5L330 289.5ZM330 286.552L330 284.586L329 284.586L329 286.552L330 286.552ZM330 282.621L330 280.655L329 280.655L329 282.621L330 282.621ZM330 278.69L330 276.724L329 276.724L329 278.69L330 278.69ZM330 274.759L330 272.793L329 272.793L329 274.759L330 274.759ZM330 270.828L330 268.862L329 268.862L329 270.828L330 270.828ZM330 266.897L330 264.931L329 264.931L329 266.897L330 266.897ZM330 262.966L330 261L329 261L329 262.966L330 262.966ZM330 259.034L330 257.069L329 257.069L329 259.034L330 259.034ZM330 255.103L330 253.138L329 253.138L329 255.103L330 255.103ZM330 251.172L330 249.207L329 249.207L329 251.172L330 251.172ZM330 247.241L330 245.276L329 245.276L329 247.241L330 247.241ZM330 243.31L330 241.345L329 241.345L329 243.31L330 243.31ZM330 239.379L330 237.414L329 237.414L329 239.379L330 239.379ZM330 235.448L330 233.483L329 233.483L329 235.448L330 235.448ZM330 231.517L330 229.552L329 229.552L329 231.517L330 231.517ZM330 227.586L330 225.621L329 225.621L329 227.586L330 227.586ZM330 223.655L330 221.69L329 221.69L329 223.655L330 223.655ZM330 219.724L330 217.759L329 217.759L329 219.724L330 219.724ZM330 215.793L330 213.828L329 213.828L329 215.793L330 215.793ZM330 211.862L330 209.897L329 209.897L329 211.862L330 211.862ZM330 207.931L330 205.966L329 205.966L329 207.931L330 207.931ZM330 204L330 202.034L329 202.034L329 204L330 204ZM330 200.069L330 198.103L329 198.103L329 200.069L330 200.069ZM330 196.138L330 194.172L329 194.172L329 196.138L330 196.138ZM330 192.207L330 190.241L329 190.241L329 192.207L330 192.207ZM330 188.276L330 186.31L329 186.31L329 188.276L330 188.276ZM330 184.345L330 182.379L329 182.379L329 184.345L330 184.345ZM330 180.414L330 178.448L329 178.448L329 180.414L330 180.414ZM330 176.483L330 175.5L329 175.5L329 176.483L330 176.483Z" fill="black"/>
<path d="M276.5 48.6133L273.613 51.5L276.5 54.3867L279.387 51.5L276.5 48.6133ZM277 231.5L277 230.5L276 230.5L276 231.5L277 231.5ZM277 228.5L277 226.5L276 226.5L276 228.5L277 228.5ZM277 224.5L277 222.5L276 222.5L276 224.5L277 224.5ZM277 220.5L277 218.5L276 218.5L276 220.5L277 220.5ZM277 216.5L277 214.5L276 214.5L276 216.5L277 216.5ZM277 212.5L277 210.5L276 210.5L276 212.5L277 212.5ZM277 208.5L277 206.5L276 206.5L276 208.5L277 208.5ZM277 204.5L277 202.5L276 202.5L276 204.5L277 204.5ZM277 200.5L277 198.5L276 198.5L276 200.5L277 200.5ZM277 196.5L277 194.5L276 194.5L276 196.5L277 196.5ZM277 192.5L277 190.5L276 190.5L276 192.5L277 192.5ZM277 188.5L277 186.5L276 186.5L276 188.5L277 188.5ZM277 184.5L277 182.5L276 182.5L276 184.5L277 184.5ZM277 180.5L277 178.5L276 178.5L276 180.5L277 180.5ZM277 176.5L277 174.5L276 174.5L276 176.5L277 176.5ZM277 172.5L277 170.5L276 170.5L276 172.5L277 172.5ZM277 168.5L277 166.5L276 166.5L276 168.5L277 168.5ZM277 164.5L277 162.5L276 162.5L276 164.5L277 164.5ZM277 160.5L277 158.5L276 158.5L276 160.5L277 160.5ZM277 156.5L277 154.5L276 154.5L276 156.5L277 156.5ZM277 152.5L277 150.5L276 150.5L276 152.5L277 152.5ZM277 148.5L277 146.5L276 146.5L276 148.5L277 148.5ZM277 144.5L277 142.5L276 142.5L276 144.5L277 144.5ZM277 140.5L277 138.5L276 138.5L276 140.5L277 140.5ZM277 136.5L277 134.5L276 134.5L276 136.5L277 136.5ZM277 132.5L277 130.5L276 130.5L276 132.5L277 132.5ZM277 128.5L277 126.5L276 126.5L276 128.5L277 128.5ZM277 124.5L277 122.5L276 122.5L276 124.5L277 124.5ZM277 120.5L277 118.5L276 118.5L276 120.5L277 120.5ZM277 116.5L277 114.5L276 114.5L276 116.5L277 116.5ZM277 112.5L277 110.5L276 110.5L276 112.5L277 112.5ZM277 108.5L277 106.5L276 106.5L276 108.5L277 108.5ZM277 104.5L277 102.5L276 102.5L276 104.5L277 104.5ZM277 100.5L277 98.5L276 98.5L276 100.5L277 100.5ZM277 96.5L277 94.5L276 94.5L276 96.5L277 96.5ZM277 92.5L277 90.5L276 90.5L276 92.5L277 92.5ZM277 88.5L277 86.5L276 86.5L276 88.5L277 88.5ZM277 84.5L277 82.5L276 82.5L276 84.5L277 84.5ZM277 80.5L277 78.5L276 78.5L276 80.5L277 80.5ZM277 76.5L277 74.5L276 74.5L276 76.5L277 76.5ZM277 72.5L277 70.5L276 70.5L276 72.5L277 72.5ZM277 68.5L277 66.5L276 66.5L276 68.5L277 68.5ZM277 64.5L277 62.5L276 62.5L276 64.5L277 64.5ZM277 60.5L277 58.5L276 58.5L276 60.5L277 60.5ZM277 56.5L277 54.5L276 54.5L276 56.5L277 56.5ZM277 52.5L277 51.5L276 51.5L276 52.5L277 52.5Z" fill="black"/>
<path d="M234.5 165.613L231.613 168.5L234.5 171.387L237.387 168.5L234.5 165.613ZM235 255.5L235 254.511L234 254.511L234 255.5L235 255.5ZM235 252.534L235 250.557L234 250.557L234 252.534L235 252.534ZM235 248.58L235 246.602L234 246.602L234 248.58L235 248.58ZM235 244.625L235 242.648L234 242.648L234 244.625L235 244.625ZM235 240.67L235 238.693L234 238.693L234 240.67L235 240.67ZM235 236.716L235 234.739L234 234.739L234 236.716L235 236.716ZM235 232.761L235 230.784L234 230.784L234 232.761L235 232.761ZM235 228.807L235 226.83L234 226.83L234 228.807L235 228.807ZM235 224.852L235 222.875L234 222.875L234 224.852L235 224.852ZM235 220.898L235 218.92L234 218.92L234 220.898L235 220.898ZM235 216.943L235 214.966L234 214.966L234 216.943L235 216.943ZM235 212.989L235 211.011L234 211.011L234 212.989L235 212.989ZM235 209.034L235 207.057L234 207.057L234 209.034L235 209.034ZM235 205.08L235 203.102L234 203.102L234 205.08L235 205.08ZM235 201.125L235 199.148L234 199.148L234 201.125L235 201.125ZM235 197.17L235 195.193L234 195.193L234 197.17L235 197.17ZM235 193.216L235 191.239L234 191.239L234 193.216L235 193.216ZM235 189.261L235 187.284L234 187.284L234 189.261L235 189.261ZM235 185.307L235 183.33L234 183.33L234 185.307L235 185.307ZM235 181.352L235 179.375L234 179.375L234 181.352L235 181.352ZM235 177.398L235 175.42L234 175.42L234 177.398L235 177.398ZM235 173.443L235 171.466L234 171.466L234 173.443L235 173.443ZM235 169.489L235 168.5L234 168.5L234 169.489L235 169.489Z" fill="black"/>
<path d="M330.052 151.423L315 142.715L330.052 134L345.098 142.715L330.052 151.423Z" fill="#FFE2B3" stroke="#313131" stroke-linecap="round" stroke-linejoin="round"/>
<path d="M345.098 160.138L330.052 168.847V151.423L345.098 142.715V160.138Z" fill="#FFA052" stroke="#313131" stroke-linecap="round" stroke-linejoin="round"/>
<path d="M330.052 168.847L315 160.138V142.715L330.052 151.423V168.847Z" fill="#FFA052" stroke="#313131" stroke-linecap="round" stroke-linejoin="round"/>
<path d="M234.666 154.035L226 149.017L234.666 144L243.332 149.017L234.666 154.035Z" fill="#B0F2FF" stroke="#313131" stroke-linecap="round" stroke-linejoin="round"/>
<path d="M243.332 159.053L234.666 164.077V154.035L243.332 149.018V159.053Z" fill="#33B6FF" stroke="#313131" stroke-linecap="round" stroke-linejoin="round"/>
<path d="M234.666 164.077L226 159.053V149.018L234.666 154.035V164.077Z" fill="#33B6FF" stroke="#313131" stroke-linecap="round" stroke-linejoin="round"/>
<path d="M419.181 166.996L414 163.995L419.181 161L424.362 163.995L419.181 166.996Z" fill="#CCFFDF" stroke="#313131" stroke-linecap="round" stroke-linejoin="round"/>
<path d="M424.362 169.997L419.181 172.999V166.996L424.362 163.995V169.997Z" fill="#2DDC61" stroke="#313131" stroke-linecap="round" stroke-linejoin="round"/>
<path d="M419.181 172.999L414 169.997V163.995L419.181 166.996V172.999Z" fill="#6AFF96" stroke="#313131" stroke-linecap="round" stroke-linejoin="round"/>
<path d="M297.181 236.996L292 233.995L297.181 231L302.362 233.995L297.181 236.996Z" fill="#CCFFDF" stroke="#313131" stroke-linecap="round" stroke-linejoin="round"/>
<path d="M302.362 237.997L297.181 240.999V236.996L302.362 233.995V237.997Z" fill="#2DDC61" stroke="#313131" stroke-linecap="round" stroke-linejoin="round"/>
<path d="M297.181 240.999L292 237.997V233.995L297.181 236.996V240.999Z" fill="#6AFF96" stroke="#313131" stroke-linecap="round" stroke-linejoin="round"/>
<path d="M131.181 161.996L126 158.995L131.181 156L136.362 158.995L131.181 161.996Z" fill="#FFE2B3" stroke="#313131" stroke-linecap="round" stroke-linejoin="round"/>
<path d="M136.362 164.997L131.181 167.999V161.996L136.362 158.995V164.997Z" fill="#FFA052" stroke="#313131" stroke-linecap="round" stroke-linejoin="round"/>
<path d="M131.181 167.999L126 164.997V158.995L131.181 161.996V167.999Z" fill="#FFA052" stroke="#313131" stroke-linecap="round" stroke-linejoin="round"/>
<path opacity="0.2" d="M294 303L282 295.992L294 289L306 295.992L294 303Z" fill="black"/>
<path d="M355.181 220.996L350 217.995L355.181 215L360.362 217.995L355.181 220.996Z" fill="#FFE2B3" stroke="#313131" stroke-linecap="round" stroke-linejoin="round"/>
<path opacity="0.2" d="M355.181 236.996L350 233.995L355.181 231L360.362 233.995L355.181 236.996Z" fill="black"/>
<path d="M360.362 223.997L355.181 226.999V220.996L360.362 217.995V223.997Z" fill="#FFA052" stroke="#313131" stroke-linecap="round" stroke-linejoin="round"/>
<path d="M355.181 226.999L350 223.997V217.995L355.181 220.996V226.999Z" fill="#FFA052" stroke="#313131" stroke-linecap="round" stroke-linejoin="round"/>
<path d="M385.5 80.6133L382.613 83.5L385.5 86.3867L388.387 83.5L385.5 80.6133ZM386 231.5L386 230.5L385 230.5L385 231.5L386 231.5ZM386 228.5L386 226.5L385 226.5L385 228.5L386 228.5ZM386 224.5L386 222.5L385 222.5L385 224.5L386 224.5ZM386 220.5L386 218.5L385 218.5L385 220.5L386 220.5ZM386 216.5L386 214.5L385 214.5L385 216.5L386 216.5ZM386 212.5L386 210.5L385 210.5L385 212.5L386 212.5ZM386 208.5L386 206.5L385 206.5L385 208.5L386 208.5ZM386 204.5L386 202.5L385 202.5L385 204.5L386 204.5ZM386 200.5L386 198.5L385 198.5L385 200.5L386 200.5ZM386 196.5L386 194.5L385 194.5L385 196.5L386 196.5ZM386 192.5L386 190.5L385 190.5L385 192.5L386 192.5ZM386 188.5L386 186.5L385 186.5L385 188.5L386 188.5ZM386 184.5L386 182.5L385 182.5L385 184.5L386 184.5ZM386 180.5L386 178.5L385 178.5L385 180.5L386 180.5ZM386 176.5L386 174.5L385 174.5L385 176.5L386 176.5ZM386 172.5L386 170.5L385 170.5L385 172.5L386 172.5ZM386 168.5L386 166.5L385 166.5L385 168.5L386 168.5ZM386 164.5L386 162.5L385 162.5L385 164.5L386 164.5ZM386 160.5L386 158.5L385 158.5L385 160.5L386 160.5ZM386 156.5L386 154.5L385 154.5L385 156.5L386 156.5ZM386 152.5L386 150.5L385 150.5L385 152.5L386 152.5ZM386 148.5L386 146.5L385 146.5L385 148.5L386 148.5ZM386 144.5L386 142.5L385 142.5L385 144.5L386 144.5ZM386 140.5L386 138.5L385 138.5L385 140.5L386 140.5ZM386 136.5L386 134.5L385 134.5L385 136.5L386 136.5ZM386 132.5L386 130.5L385 130.5L385 132.5L386 132.5ZM386 128.5L386 126.5L385 126.5L385 128.5L386 128.5ZM386 124.5L386 122.5L385 122.5L385 124.5L386 124.5ZM386 120.5L386 118.5L385 118.5L385 120.5L386 120.5ZM386 116.5L386 114.5L385 114.5L385 116.5L386 116.5ZM386 112.5L386 110.5L385 110.5L385 112.5L386 112.5ZM386 108.5L386 106.5L385 106.5L385 108.5L386 108.5ZM386 104.5L386 102.5L385 102.5L385 104.5L386 104.5ZM386 100.5L386 98.5L385 98.5L385 100.5L386 100.5ZM386 96.5L386 94.5L385 94.5L385 96.5L386 96.5ZM386 92.5L386 90.5L385 90.5L385 92.5L386 92.5ZM386 88.5L386 86.5L385 86.5L385 88.5L386 88.5ZM386 84.5L386 83.5L385 83.5L385 84.5L386 84.5Z" fill="black"/>
<path d="M450.787 110.613L447.9 113.5L450.787 116.387L453.674 113.5L450.787 110.613ZM451.287 261.5L451.287 260.5L450.287 260.5L450.287 261.5L451.287 261.5ZM451.287 258.5L451.287 256.5L450.287 256.5L450.287 258.5L451.287 258.5ZM451.287 254.5L451.287 252.5L450.287 252.5L450.287 254.5L451.287 254.5ZM451.287 250.5L451.287 248.5L450.287 248.5L450.287 250.5L451.287 250.5ZM451.287 246.5L451.287 244.5L450.287 244.5L450.287 246.5L451.287 246.5ZM451.287 242.5L451.287 240.5L450.287 240.5L450.287 242.5L451.287 242.5ZM451.287 238.5L451.287 236.5L450.287 236.5L450.287 238.5L451.287 238.5ZM451.287 234.5L451.287 232.5L450.287 232.5L450.287 234.5L451.287 234.5ZM451.287 230.5L451.287 228.5L450.287 228.5L450.287 230.5L451.287 230.5ZM451.287 226.5L451.287 224.5L450.287 224.5L450.287 226.5L451.287 226.5ZM451.287 222.5L451.287 220.5L450.287 220.5L450.287 222.5L451.287 222.5ZM451.287 218.5L451.287 216.5L450.287 216.5L450.287 218.5L451.287 218.5ZM451.287 214.5L451.287 212.5L450.287 212.5L450.287 214.5L451.287 214.5ZM451.287 210.5L451.287 208.5L450.287 208.5L450.287 210.5L451.287 210.5ZM451.287 206.5L451.287 204.5L450.287 204.5L450.287 206.5L451.287 206.5ZM451.287 202.5L451.287 200.5L450.287 200.5L450.287 202.5L451.287 202.5ZM451.287 198.5L451.287 196.5L450.287 196.5L450.287 198.5L451.287 198.5ZM451.287 194.5L451.287 192.5L450.287 192.5L450.287 194.5L451.287 194.5ZM451.287 190.5L451.287 188.5L450.287 188.5L450.287 190.5L451.287 190.5ZM451.287 186.5L451.287 184.5L450.287 184.5L450.287 186.5L451.287 186.5ZM451.287 182.5L451.287 180.5L450.287 180.5L450.287 182.5L451.287 182.5ZM451.287 178.5L451.287 176.5L450.287 176.5L450.287 178.5L451.287 178.5ZM451.287 174.5L451.287 172.5L450.287 172.5L450.287 174.5L451.287 174.5ZM451.287 170.5L451.287 168.5L450.287 168.5L450.287 170.5L451.287 170.5ZM451.287 166.5L451.287 164.5L450.287 164.5L450.287 166.5L451.287 166.5ZM451.287 162.5L451.287 160.5L450.287 160.5L450.287 162.5L451.287 162.5ZM451.287 158.5L451.287 156.5L450.287 156.5L450.287 158.5L451.287 158.5ZM451.287 154.5L451.287 152.5L450.287 152.5L450.287 154.5L451.287 154.5ZM451.287 150.5L451.287 148.5L450.287 148.5L450.287 150.5L451.287 150.5ZM451.287 146.5L451.287 144.5L450.287 144.5L450.287 146.5L451.287 146.5ZM451.287 142.5L451.287 140.5L450.287 140.5L450.287 142.5L451.287 142.5ZM451.287 138.5L451.287 136.5L450.287 136.5L450.287 138.5L451.287 138.5ZM451.287 134.5L451.287 132.5L450.287 132.5L450.287 134.5L451.287 134.5ZM451.287 130.5L451.287 128.5L450.287 128.5L450.287 130.5L451.287 130.5ZM451.287 126.5L451.287 124.5L450.287 124.5L450.287 126.5L451.287 126.5ZM451.287 122.5L451.287 120.5L450.287 120.5L450.287 122.5L451.287 122.5ZM451.287 118.5L451.287 116.5L450.287 116.5L450.287 118.5L451.287 118.5ZM451.287 114.5L451.287 113.5L450.287 113.5L450.287 114.5L451.287 114.5Z" fill="black"/>
<path d="M385.672 67.035L377 62.0175L385.672 57L394.338 62.0175L385.672 67.035Z" fill="#B0F2FF" stroke="#313131" stroke-linecap="round" stroke-linejoin="round"/>
<path d="M394.338 72.0526L385.672 77.0701V67.0351L394.338 62.0176V72.0526Z" fill="#33B6FF" stroke="#313131" stroke-linecap="round" stroke-linejoin="round"/>
<path d="M385.672 77.0701L377 72.0526V62.0176L385.672 67.0351V77.0701Z" fill="#33B6FF" stroke="#313131" stroke-linecap="round" stroke-linejoin="round"/>
<path d="M392.672 263.035L384 258.018L392.672 253L401.338 258.018L392.672 263.035Z" fill="#B0F2FF" stroke="#313131" stroke-linecap="round" stroke-linejoin="round"/>
<path d="M401.338 264.053L392.672 269.07V263.035L401.338 258.018V264.053Z" fill="#33B6FF" stroke="#313131" stroke-linecap="round" stroke-linejoin="round"/>
<path d="M392.672 269.07L384 264.053V258.018L392.672 263.035V269.07Z" fill="#33B6FF" stroke="#313131" stroke-linecap="round" stroke-linejoin="round"/>
<path d="M277.078 32.9886L265 25.9943L277.078 19L289.157 25.9943L277.078 32.9886Z" fill="#FFFFAD" stroke="#313131" stroke-linecap="round" stroke-linejoin="round"/>
<path d="M289.157 39.9827L277.078 46.9705V32.9884L289.157 25.9941V39.9827Z" fill="#FFEB55" stroke="#313131" stroke-linecap="round" stroke-linejoin="round"/>
<path d="M277.078 46.9705L265 39.9827V25.9941L277.078 32.9884V46.9705Z" fill="#FFEB55" stroke="#313131" stroke-linecap="round" stroke-linejoin="round"/>
<path d="M426 101.047L475.918 129.944V72.1506L426 43.2539V101.047Z" fill="white" stroke="#313131" stroke-linejoin="round"/>
<path d="M426 43.2539L435.078 38L484.997 66.8967L475.918 72.1506L426 43.2539Z" fill="white" stroke="#313131" stroke-linejoin="round"/>
<path d="M475.918 129.944L484.997 124.69V66.8965L475.918 72.1504V129.944Z" fill="#E2E2E4" stroke="#313131" stroke-linejoin="round"/>
<path d="M161 90.0472L210.918 118.944V61.1506L161 32.2539V90.0472Z" fill="white" stroke="#313131" stroke-linejoin="round"/>
<path fill-rule="evenodd" clip-rule="evenodd" d="M183.532 65.3144C184.426 64.8072 185.67 64.8919 187.045 65.6856C188.878 66.7439 190.466 68.7808 191.322 70.943C192.081 71.0081 192.904 71.2903 193.735 71.7709C197.035 73.6758 199.713 78.1893 199.713 81.8507C199.713 85.5121 197.035 86.933 193.735 85.0281C193.332 84.7953 192.939 84.5238 192.554 84.2174C191.805 85.252 190.375 85.4225 188.745 84.4818C188.082 84.1003 187.427 83.5567 186.831 82.8928C186.072 84.4142 184.305 84.7714 182.248 83.5838C180.1 82.3432 178.277 79.8017 177.574 77.3021C177.262 77.1942 176.943 77.0466 176.623 76.8619C174.067 75.3861 172 71.8861 172 69.0532C172 67.1498 172.931 66.03 174.312 65.9315C174.019 65.0203 173.868 64.1328 173.869 63.3243C173.869 60.0548 176.282 58.8058 179.256 60.5225C180.997 61.5279 182.555 63.34 183.533 65.3208" fill="#00A1E0"/>
<g clip-path="url(#clip0_4793_171888)">
<mask id="mask0_4793_171888" style="mask-type:luminance" maskUnits="userSpaceOnUse" x="437" y="60" width="28" height="48">
<path d="M464.713 76L437 60L437 92L464.713 108L464.713 76Z" fill="white"/>
</mask>
<g mask="url(#mask0_4793_171888)">
<mask id="mask1_4793_171888" style="mask-type:alpha" maskUnits="userSpaceOnUse" x="440" y="74" width="22" height="28">
<path d="M454.248 74.454C454.588 74.366 455.046 74.6251 455.392 75.1004L460.822 82.5772C461.089 82.9449 461.249 83.388 461.249 83.763L461.249 100.879C461.249 101.51 460.806 101.766 460.259 101.45L441.454 90.5928C440.907 90.2772 440.464 89.5097 440.464 88.8785L440.464 78.6048C440.464 78.2383 440.616 77.982 440.873 77.9155L454.248 74.454Z" fill="white"/>
</mask>
<g mask="url(#mask1_4793_171888)">
<g filter="url(#filter0_d_4793_171888)">
<path d="M454.815 74.3072L461.249 83.1643L461.249 102.021L440.464 90.0215L440.464 78.0215L454.815 74.3072Z" fill="url(#paint0_linear_4793_171888)"/>
</g>
<g filter="url(#filter1_d_4793_171888)">
<path d="M454.23 84.7333C454.578 85.2312 455.053 85.5068 455.403 85.4137L461.249 83.856L461.249 102.713L440.464 90.7131L440.464 84.4274L451.384 81.648C451.733 81.5591 452.205 81.8347 452.551 82.3299L454.23 84.7333Z" fill="black" fill-opacity="0.32"/>
</g>
<g filter="url(#filter2_d_4793_171888)">
<path d="M454.23 84.7333C454.578 85.2312 455.053 85.5068 455.403 85.4137L461.249 83.856L461.249 102.713L440.464 90.7131L440.464 84.4274L451.384 81.648C451.733 81.5591 452.205 81.8347 452.551 82.3299L454.23 84.7333Z" fill="black" fill-opacity="0.24"/>
</g>
<path d="M454.23 84.0419C454.578 84.5399 455.053 84.8155 455.403 84.7223L461.249 83.1646L461.249 102.022L440.464 90.0217L440.464 83.736L451.384 80.9566C451.733 80.8677 452.205 81.1433 452.551 81.6385L454.23 84.0419Z" fill="url(#paint1_linear_4793_171888)"/>
<g filter="url(#filter3_f_4793_171888)">
<path d="M461.249 102.13L461.249 93.8444L459.602 91.5207C459.256 91.0319 458.788 90.7622 458.442 90.8519L446.897 93.8444L461.249 102.13Z" fill="black" fill-opacity="0.24"/>
</g>
<g filter="url(#filter4_f_4793_171888)">
<path d="M461.249 102.701L461.249 94.4157L459.602 92.092C459.256 91.6032 458.788 91.3335 458.442 91.4232L446.897 94.4157L461.249 102.701Z" fill="black" fill-opacity="0.32"/>
</g>
<path d="M461.249 102.022L461.249 93.736L459.602 91.4123C459.256 90.9235 458.788 90.6538 458.442 90.7435L446.897 93.736L461.249 102.022Z" fill="url(#paint2_linear_4793_171888)"/>
</g>
</g>
</g>
<path d="M161 32.2539L170.078 27L219.997 55.8967L210.918 61.1506L161 32.2539Z" fill="white" stroke="#313131" stroke-linejoin="round"/>
<path d="M210.918 118.944L219.997 113.69V55.8965L210.918 61.1504V118.944Z" fill="#E2E2E4" stroke="#313131" stroke-linejoin="round"/>
<path d="M161 235.047L210.918 263.944V206.151L161 177.254V235.047Z" fill="white" stroke="#313131" stroke-linejoin="round"/>
<path d="M161 177.254L170.078 172L219.997 200.897L210.918 206.151L161 177.254Z" fill="white" stroke="#313131" stroke-linejoin="round"/>
<path d="M210.918 263.944L219.997 258.69V200.896L210.918 206.15V263.944Z" fill="#E2E2E4" stroke="#313131" stroke-linejoin="round"/>
<path d="M397 337.047L446.918 365.944V308.151L397 279.254V337.047Z" fill="white" stroke="#313131" stroke-linejoin="round"/>
<path d="M426.619 318.741L426.619 315.248C427.018 315.263 427.357 315.116 427.594 314.824C427.832 314.532 427.959 314.107 427.961 313.599L427.961 313.518C427.961 312.033 426.919 310.227 425.633 309.485L425.564 309.444C424.946 309.088 424.354 309.03 423.917 309.282C423.481 309.534 423.236 310.077 423.236 310.79L423.236 310.87C423.238 311.381 423.365 311.953 423.603 312.519C423.84 313.086 424.178 313.624 424.578 314.07L424.578 317.563C423.43 317.103 422.348 317.029 421.443 317.348L413.152 305.099C413.211 304.887 413.242 304.651 413.246 304.399C413.247 303.8 413.094 303.125 412.806 302.46C412.519 301.795 412.11 301.17 411.631 300.663C411.152 300.156 410.625 299.79 410.116 299.612C409.607 299.434 409.139 299.452 408.771 299.663C408.404 299.874 408.153 300.269 408.051 300.798C407.949 301.327 408 301.966 408.198 302.634C408.396 303.303 408.732 303.97 409.163 304.553C409.594 305.135 410.101 305.607 410.619 305.907C411.073 306.167 411.519 306.284 411.911 306.247L420.075 318.301C419.342 319.158 418.959 320.443 418.977 321.988C418.995 323.534 419.413 325.269 420.177 326.966L417.693 328.402C417.493 328.212 417.284 328.052 417.073 327.927C416.647 327.682 416.231 327.588 415.877 327.657C415.523 327.726 415.247 327.956 415.084 328.317C414.921 328.677 414.879 329.153 414.962 329.684C415.045 330.214 415.25 330.776 415.551 331.298C415.853 331.819 416.236 332.278 416.654 332.615C417.072 332.952 417.505 333.153 417.898 333.192C418.292 333.231 418.628 333.107 418.865 332.835C419.102 332.562 419.228 332.155 419.229 331.663C419.226 331.418 419.192 331.156 419.127 330.887L421.584 329.466C422.385 330.641 423.317 331.67 424.307 332.475C425.298 333.279 426.322 333.837 427.3 334.107C428.278 334.376 429.185 334.349 429.95 334.028C430.716 333.708 431.32 333.101 431.717 332.256C432.114 331.411 432.293 330.349 432.24 329.152C432.187 327.955 431.903 326.654 431.411 325.349C430.919 324.045 430.231 322.771 429.4 321.626C428.57 320.48 427.618 319.494 426.619 318.741ZM425.6 329.642C425.146 329.394 424.695 329.042 424.271 328.607C423.848 328.172 423.463 327.663 423.137 327.109C422.812 326.555 422.553 325.968 422.376 325.383C422.199 324.797 422.108 324.225 422.108 323.7C422.108 323.176 422.199 322.709 422.376 322.327C422.553 321.946 422.812 321.658 423.137 321.48C423.463 321.302 423.848 321.238 424.271 321.291C424.695 321.345 425.146 321.515 425.6 321.791C426.48 322.335 427.314 323.245 427.926 324.33C428.538 325.415 428.88 326.59 428.88 327.607C428.881 328.625 428.539 329.405 427.928 329.785C427.317 330.165 426.484 330.113 425.604 329.642" fill="#FF7A59"/>
<g clip-path="url(#clip1_4793_171888)">
<path d="M184.203 215.244L184.203 231.319L172.672 224.662L184.203 215.244ZM184.203 209.476C184.203 211.241 183.596 212.584 182.514 213.208C181.433 213.832 179.967 213.687 178.438 212.804C176.909 211.921 175.442 210.373 174.361 208.501C173.28 206.628 172.672 204.584 172.672 202.818L184.203 209.476ZM186.103 232.417C186.103 230.651 186.71 229.309 187.791 228.685C188.872 228.06 190.339 228.206 191.868 229.088C193.397 229.971 194.863 231.519 195.945 233.392C197.026 235.265 197.633 237.309 197.633 239.074L186.103 232.417ZM186.103 226.649L186.103 210.572L197.636 217.231L186.103 226.647L186.103 226.649Z" fill="#03363D"/>
</g>
<path d="M397 279.254L406.078 274L455.997 302.897L446.918 308.151L397 279.254Z" fill="white" stroke="#313131" stroke-linejoin="round"/>
<path d="M446.918 365.944L455.997 360.69V302.896L446.918 308.15V365.944Z" fill="#E2E2E4" stroke="#313131" stroke-linejoin="round"/>
<path d="M523.041 210.553L506.017 220.404V200.702L523.041 190.851V210.553Z" fill="#FFEB55" stroke="#313131" stroke-linecap="round" stroke-linejoin="round"/>
<path d="M506.017 220.404L489 210.553V190.851L506.017 200.702V220.404Z" fill="#FFEB55" stroke="#313131" stroke-linecap="round" stroke-linejoin="round"/>
<path d="M506.017 200.702L489 190.851L506.017 181L523.041 190.851L506.017 200.702Z" fill="#FFFFAD" stroke="#313131" stroke-linecap="round" stroke-linejoin="round"/>
<path d="M305.041 280.081L294.018 286.459V273.702L305.041 267.324V280.081Z" fill="#2DDC61" stroke="#313131" stroke-linecap="round" stroke-linejoin="round"/>
<path d="M294.018 286.459L283 280.081V267.324L294.018 273.702V286.459Z" fill="#2DDC61" stroke="#313131" stroke-linecap="round" stroke-linejoin="round"/>
<path d="M294.018 273.702L283 267.324L294.018 260.945L305.041 267.324L294.018 273.702Z" fill="#CCFFDF" stroke="#313131" stroke-linecap="round" stroke-linejoin="round"/>
<path d="M488.258 112.583L490.351 112.255L488.768 110.847L470.08 94.2398L468.416 92.7608V94.9873V119.926V122.051L470.054 120.696L477.891 114.209L488.258 112.583Z" fill="#3533FF" stroke="white" stroke-width="2"/>
<defs>
<filter id="filter0_d_4793_171888" x="432.464" y="68.3071" width="36.7847" height="43.7144" filterUnits="userSpaceOnUse" color-interpolation-filters="sRGB">
<feFlood flood-opacity="0" result="BackgroundImageFix"/>
<feColorMatrix in="SourceAlpha" type="matrix" values="0 0 0 0 0 0 0 0 0 0 0 0 0 0 0 0 0 0 127 0" result="hardAlpha"/>
<feOffset dy="2"/>
<feGaussianBlur stdDeviation="4"/>
<feColorMatrix type="matrix" values="0 0 0 0 0 0 0 0 0 0 0 0 0 0 0 0 0 0 0.2 0"/>
<feBlend mode="normal" in2="BackgroundImageFix" result="effect1_dropShadow_4793_171888"/>
<feBlend mode="normal" in="SourceGraphic" in2="effect1_dropShadow_4793_171888" result="shape"/>
</filter>
<filter id="filter1_d_4793_171888" x="432.464" y="77.6313" width="36.7847" height="37.0815" filterUnits="userSpaceOnUse" color-interpolation-filters="sRGB">
<feFlood flood-opacity="0" result="BackgroundImageFix"/>
<feColorMatrix in="SourceAlpha" type="matrix" values="0 0 0 0 0 0 0 0 0 0 0 0 0 0 0 0 0 0 127 0" result="hardAlpha"/>
<feOffset dy="4"/>
<feGaussianBlur stdDeviation="4"/>
<feColorMatrix type="matrix" values="0 0 0 0 0 0 0 0 0 0 0 0 0 0 0 0 0 0 0.25 0"/>
<feBlend mode="normal" in2="BackgroundImageFix" result="effect1_dropShadow_4793_171888"/>
<feBlend mode="normal" in="SourceGraphic" in2="effect1_dropShadow_4793_171888" result="shape"/>
</filter>
<filter id="filter2_d_4793_171888" x="439.704" y="81.6313" width="22.3047" height="25.8415" filterUnits="userSpaceOnUse" color-interpolation-filters="sRGB">
<feFlood flood-opacity="0" result="BackgroundImageFix"/>
<feColorMatrix in="SourceAlpha" type="matrix" values="0 0 0 0 0 0 0 0 0 0 0 0 0 0 0 0 0 0 127 0" result="hardAlpha"/>
<feOffset dy="4"/>
<feGaussianBlur stdDeviation="0.38"/>
<feColorMatrix type="matrix" values="0 0 0 0 0 0 0 0 0 0 0 0 0 0 0 0 0 0 1 0"/>
<feBlend mode="normal" in2="BackgroundImageFix" result="effect1_dropShadow_4793_171888"/>
<feBlend mode="normal" in="SourceGraphic" in2="effect1_dropShadow_4793_171888" result="shape"/>
</filter>
<filter id="filter3_f_4793_171888" x="446.137" y="90.075" width="15.8713" height="12.8154" filterUnits="userSpaceOnUse" color-interpolation-filters="sRGB">
<feFlood flood-opacity="0" result="BackgroundImageFix"/>
<feBlend mode="normal" in="SourceGraphic" in2="BackgroundImageFix" result="shape"/>
<feGaussianBlur stdDeviation="0.38" result="effect1_foregroundBlur_4793_171888"/>
</filter>
<filter id="filter4_f_4793_171888" x="438.897" y="83.4062" width="30.3513" height="27.2954" filterUnits="userSpaceOnUse" color-interpolation-filters="sRGB">
<feFlood flood-opacity="0" result="BackgroundImageFix"/>
<feBlend mode="normal" in="SourceGraphic" in2="BackgroundImageFix" result="shape"/>
<feGaussianBlur stdDeviation="4" result="effect1_foregroundBlur_4793_171888"/>
</filter>
<linearGradient id="paint0_linear_4793_171888" x1="438.516" y1="65.8403" x2="429.056" y2="89.1425" gradientUnits="userSpaceOnUse">
<stop stop-color="#158915"/>
<stop offset="1" stop-color="#065F18"/>
</linearGradient>
<linearGradient id="paint1_linear_4793_171888" x1="435.593" y1="68.483" x2="427.833" y2="87.5695" gradientUnits="userSpaceOnUse">
<stop stop-color="#6AD116"/>
<stop offset="1" stop-color="#34A117"/>
</linearGradient>
<linearGradient id="paint2_linear_4793_171888" x1="447.122" y1="83.7885" x2="442.636" y2="93.6409" gradientUnits="userSpaceOnUse">
<stop stop-color="#C3F488"/>
<stop offset="1" stop-color="#8FDC50"/>
</linearGradient>
<clipPath id="clip0_4793_171888">
<rect width="32" height="32" fill="white" transform="matrix(0.866025 0.5 -2.20305e-08 1 437 60)"/>
</clipPath>
<clipPath id="clip1_4793_171888">
<rect width="32" height="32" fill="white" transform="matrix(0.866025 0.5 -2.20305e-08 1 172 197)"/>
</clipPath>
</defs>
</svg>
