<svg width="660" height="480" viewBox="0 0 660 480" fill="none" xmlns="http://www.w3.org/2000/svg">
<path d="M262 151.897L311.918 180.793L361.837 151.897L311.918 123L262 151.897Z" fill="#F4F4F4" stroke="#313131" stroke-linejoin="round"/>
<g clip-path="url(#clip0_4793_171808)">
<path d="M304.166 145L294.062 150.833L314.27 162.5L330.435 153.167L316.29 145H304.166ZM315.785 146.458L310.228 149.667L304.671 146.458H315.785Z" fill="#767676"/>
</g>
<path d="M311.918 180.793V191.301L361.837 162.405V151.897L311.918 180.793Z" fill="#E2E2E4" stroke="#313131" stroke-linejoin="round"/>
<path d="M262 151.897V162.405L311.918 191.301V180.793L262 151.897Z" fill="white" stroke="#313131" stroke-linejoin="round"/>
<path d="M419 249.897L468.918 278.793L518.837 249.897L468.918 221L419 249.897Z" fill="#B0F2FF" stroke="#313131" stroke-linejoin="round"/>
<g clip-path="url(#clip1_4793_171808)">
<path d="M451.062 248.833L456.114 251.75L472.28 242.417L467.228 239.5L451.062 248.833ZM458.135 252.917L464.197 256.417L480.363 247.083L474.301 243.583L458.135 252.917ZM466.218 257.583L471.27 260.5L487.435 251.167L482.384 248.25L466.218 257.583Z" fill="#3533FF"/>
</g>
<path d="M468.918 278.793V289.301L518.837 260.405V249.897L468.918 278.793Z" fill="#E2E2E4" stroke="#313131" stroke-linejoin="round"/>
<path d="M419 249.897V260.405L468.918 289.301V278.793L419 249.897Z" fill="white" stroke="#313131" stroke-linejoin="round"/>
<path d="M202.997 185.897L252.916 214.793L302.834 185.897L252.916 157L202.997 185.897Z" fill="#F4F4F4" stroke="#313131" stroke-linejoin="round"/>
<path d="M252.916 214.793V225.301L302.834 196.405V185.897L252.916 214.793Z" fill="#E2E2E4" stroke="#313131" stroke-linejoin="round"/>
<path d="M202.997 185.897V196.405L252.916 225.301V214.793L202.997 185.897Z" fill="white" stroke="#313131" stroke-linejoin="round"/>
<g clip-path="url(#clip2_4793_171808)">
<path d="M235.062 184.833L240.114 187.75L256.28 178.417L251.228 175.5L235.062 184.833ZM242.135 188.917L248.197 192.417L264.363 183.083L258.301 179.583L242.135 188.917ZM250.218 193.583L255.27 196.5L271.435 187.167L266.384 184.25L250.218 193.583Z" fill="#767676"/>
</g>
<path d="M361.997 284.897L411.916 313.793L461.834 284.897L411.916 256L361.997 284.897Z" fill="#B0F2FF" stroke="#313131" stroke-linejoin="round"/>
<g clip-path="url(#clip3_4793_171808)">
<g clip-path="url(#clip4_4793_171808)">
<path d="M444.215 268.076L450.419 264.494L441.888 263.353L445.352 272.31L442.612 273.892L438.556 263.088C438.488 262.865 438.514 262.635 438.632 262.418C438.751 262.201 438.957 262.003 439.234 261.841C439.511 261.678 439.851 261.557 440.225 261.485C440.599 261.414 440.997 261.396 441.385 261.431L460.138 263.773L457.398 265.355L453.986 264.875L447.709 268.5L444.227 268.069M474.81 252.853L464.92 247.143L462.592 248.488L473.455 254.76C473.606 254.847 473.785 254.916 473.984 254.962C474.182 255.008 474.395 255.03 474.609 255.027C474.831 255.028 475.052 255.003 475.258 254.954C475.464 254.905 475.651 254.832 475.808 254.741L486.392 248.63L485.651 246.608L474.81 252.867M434.544 274.061C435.629 273.435 436.241 272.587 436.247 271.704C436.253 270.821 435.651 269.976 434.573 269.354C433.496 268.732 432.032 268.385 430.503 268.388C428.974 268.391 427.505 268.745 426.42 269.371L416.243 275.247L428.254 282.182L430.578 280.84L420.693 275.133L428.404 270.681C428.923 270.381 429.626 270.212 430.358 270.21C431.089 270.209 431.79 270.375 432.306 270.673C432.821 270.97 433.109 271.375 433.107 271.797C433.104 272.22 432.811 272.626 432.291 272.926L425.733 276.712L438.676 276.165L442.051 274.216L433.497 274.665L434.544 274.061ZM413.956 290.437L420.987 286.378C422.523 285.444 423.371 284.203 423.35 282.92C423.33 281.637 422.442 280.413 420.876 279.509C419.31 278.605 417.19 278.093 414.968 278.081C412.746 278.069 410.597 278.558 408.98 279.445L401.949 283.504C401.121 283.959 400.457 284.503 399.998 285.106C399.538 285.709 399.291 286.358 399.273 287.015C399.254 287.672 399.463 288.324 399.888 288.932C400.312 289.539 400.944 290.091 401.746 290.554C402.548 291.017 403.503 291.382 404.556 291.627C405.609 291.872 406.737 291.993 407.875 291.982C409.013 291.971 410.138 291.829 411.182 291.563C412.226 291.298 413.17 290.915 413.956 290.437ZM418.714 285.249L411.997 289.127C410.948 289.695 409.561 290.007 408.129 289.997C406.696 289.986 405.331 289.655 404.321 289.072C403.312 288.489 402.737 287.701 402.72 286.874C402.702 286.047 403.242 285.246 404.226 284.64L410.943 280.762C411.451 280.449 412.061 280.198 412.739 280.024C413.416 279.85 414.146 279.755 414.886 279.747C415.626 279.739 416.36 279.816 417.044 279.975C417.729 280.134 418.35 280.371 418.871 280.671C419.392 280.972 419.803 281.331 420.078 281.726C420.353 282.121 420.487 282.545 420.472 282.972C420.458 283.399 420.294 283.821 419.993 284.212C419.691 284.603 419.256 284.956 418.714 285.249ZM464.995 260.969L472.172 256.826L471.418 254.82L463.04 259.657C462.532 259.97 461.922 260.221 461.244 260.395C460.567 260.57 459.836 260.664 459.097 260.672C458.357 260.681 457.623 260.603 456.939 260.444C456.254 260.286 455.633 260.049 455.112 259.748C454.591 259.447 454.18 259.088 453.905 258.693C453.63 258.298 453.496 257.874 453.511 257.447C453.525 257.02 453.688 256.598 453.99 256.207C454.292 255.816 454.727 255.464 455.268 255.17L462.087 251.233L461.342 249.214L452.988 254.037C452.16 254.491 451.496 255.036 451.037 255.639C450.577 256.242 450.33 256.891 450.311 257.548C450.292 258.205 450.502 258.857 450.926 259.464C451.351 260.072 451.983 260.624 452.785 261.087C453.587 261.55 454.542 261.914 455.595 262.16C456.647 262.405 457.776 262.526 458.914 262.515C460.052 262.504 461.176 262.361 462.221 262.096C463.265 261.831 464.208 261.448 464.995 260.969ZM491.326 243.327C490.473 243.819 489.367 244.139 488.176 244.237C486.985 244.335 485.774 244.206 484.727 243.87L494.669 238.13L493.919 236.118L482.609 242.647C482.026 242.043 481.802 241.343 481.972 240.656C482.142 239.968 482.696 239.329 483.55 238.837L490.373 234.898L489.615 232.886L481.27 237.704C479.733 238.638 478.885 239.878 478.906 241.161C478.927 242.444 479.815 243.668 481.38 244.572C482.946 245.476 485.066 245.989 487.288 246.001C489.511 246.013 491.659 245.523 493.277 244.636L500.454 240.493L499.704 238.485L491.318 243.327" fill="#3533FF"/>
</g>
</g>
<path d="M411.916 313.793V324.301L461.834 295.405V284.897L411.916 313.793Z" fill="#E2E2E4" stroke="#313131" stroke-linejoin="round"/>
<path d="M361.997 284.897V295.405L411.916 324.301V313.793L361.997 284.897Z" fill="white" stroke="#313131" stroke-linejoin="round"/>
<path d="M144 220.047L193.918 248.944L243.837 220.047L193.918 191.15L144 220.047Z" fill="#F4F4F4" stroke="#313131" stroke-linejoin="round"/>
<path d="M193.918 248.944V259.452L243.837 230.555V220.047L193.918 248.944Z" fill="#E2E2E4" stroke="#313131" stroke-linejoin="round"/>
<path d="M144 220.047V230.555L193.918 259.452V248.944L144 220.047Z" fill="white" stroke="#313131" stroke-linejoin="round"/>
<g clip-path="url(#clip5_4793_171808)">
<path d="M176.062 222.333L191.218 231.083L213.446 218.25L198.29 209.5L176.062 222.333ZM187.827 221.374C189.307 220.568 190.649 221.242 190.872 221.371L189.896 221.934C189.791 221.874 189.209 221.518 188.627 221.854C188.45 221.956 188.13 222.231 188.648 222.495C189.125 222.737 189.927 222.518 190.083 222.483C190.392 222.4 192.01 222.042 193.037 222.625C193.255 222.749 194.332 223.435 192.899 224.279C191.341 225.199 189.879 224.477 189.6 224.316L190.584 223.747C190.733 223.833 191.463 224.24 192.092 223.813C192.469 223.556 192.262 223.333 192.056 223.198C191.709 222.97 191.132 223.046 190.578 223.158C189.8 223.316 188.659 223.616 187.66 223.057C186.76 222.553 186.899 221.881 187.827 221.374ZM195.259 217.083L196.27 216.5L200.311 218.833L202.332 217.667L203.342 218.25L200.311 220L195.259 217.083ZM192.23 218.834C194.083 217.73 196.047 218.705 196.4 218.908L197.217 219.38C197.562 219.58 199.253 220.656 197.286 221.744C195.18 222.91 193.52 221.912 193.175 221.713L192.358 221.242C192.004 221.037 190.407 219.921 192.23 218.834ZM193.061 219.312C192.124 219.874 193.126 220.519 193.361 220.654L194.186 221.13C194.41 221.26 195.614 221.774 196.463 221.265C197.277 220.776 196.43 220.092 196.206 219.963L195.382 219.487C195.147 219.352 193.938 218.784 193.061 219.312Z" fill="#767676"/>
</g>
<path d="M303 319.047L352.918 347.944L402.837 319.047L352.918 290.15L303 319.047Z" fill="#B0F2FF" stroke="#313131" stroke-linejoin="round"/>
<path d="M352.918 347.944V358.452L402.837 329.555V319.047L352.918 347.944Z" fill="#E2E2E4" stroke="#313131" stroke-linejoin="round"/>
<path d="M303 319.047V329.555L352.918 358.452V347.944L303 319.047Z" fill="white" stroke="#313131" stroke-linejoin="round"/>
<g clip-path="url(#clip6_4793_171808)">
<path d="M344.166 312L334.062 317.833L354.27 329.5L370.435 320.167L356.29 312H344.166ZM355.785 313.458L350.228 316.667L344.671 313.458H355.785Z" fill="#3533FF"/>
</g>
<mask maskUnits="userSpaceOnUse" x="0" y="0" width="0" height="0" fill="black">
<rect fill="white" width="0" height="0"/>
</mask>
<path d="M275.933 204.307L278.433 208.637L280.933 207.193L278.433 202.863L275.933 204.307ZM389.186 269.693L386.686 265.363L384.186 266.807L386.686 271.137L389.186 269.693ZM278.433 206.25L279.306 206.754L279.306 205.754L278.433 205.25L278.433 206.25ZM281.052 207.762L282.798 208.77L282.798 207.77L281.052 206.762L281.052 207.762ZM284.544 209.778L286.29 210.786L286.29 209.786L284.544 208.778L284.544 209.778ZM288.036 211.794L289.782 212.802L289.782 211.802L288.036 210.794L288.036 211.794ZM291.528 213.81L293.274 214.819L293.274 213.819L291.528 212.81L291.528 213.81ZM295.02 215.827L296.766 216.835L296.766 215.835L295.02 214.827L295.02 215.827ZM298.512 217.843L300.258 218.851L300.258 217.851L298.512 216.843L298.512 217.843ZM302.004 219.859L303.75 220.867L303.75 219.867L302.004 218.859L302.004 219.859ZM305.496 221.875L307.242 222.883L307.242 221.883L305.496 220.875L305.496 221.875ZM308.988 223.891L310.734 224.899L310.734 223.899L308.988 222.891L308.988 223.891ZM312.48 225.907L314.226 226.915L314.226 225.915L312.48 224.907L312.48 225.907ZM315.972 227.923L317.718 228.931L317.718 227.931L315.972 226.923L315.972 227.923ZM319.464 229.94L321.21 230.948L321.21 229.948L319.464 228.94L319.464 229.94ZM322.956 231.956L324.703 232.964L324.703 231.964L322.956 230.956L322.956 231.956ZM326.449 233.972L328.195 234.98L328.195 233.98L326.449 232.972L326.449 233.972ZM329.941 235.988L331.687 236.996L331.687 235.996L329.941 234.988L329.941 235.988ZM333.433 238.004L335.179 239.012L335.179 238.012L333.433 237.004L333.433 238.004ZM336.925 240.02L338.671 241.028L338.671 240.028L336.925 239.02L336.925 240.02ZM340.417 242.036L342.163 243.044L342.163 242.044L340.417 241.036L340.417 242.036ZM343.909 244.052L345.655 245.06L345.655 244.06L343.909 243.052L343.909 244.052ZM347.401 246.069L349.147 247.077L349.147 246.077L347.401 245.069L347.401 246.069ZM350.893 248.085L352.639 249.093L352.639 248.093L350.893 247.085L350.893 248.085ZM354.385 250.101L356.131 251.109L356.131 250.109L354.385 249.101L354.385 250.101ZM357.877 252.117L359.623 253.125L359.623 252.125L357.877 251.117L357.877 252.117ZM361.369 254.133L363.115 255.141L363.115 254.141L361.369 253.133L361.369 254.133ZM364.861 256.149L366.607 257.157L366.607 256.157L364.861 255.149L364.861 256.149ZM368.353 258.165L370.099 259.173L370.099 258.173L368.353 257.165L368.353 258.165ZM371.845 260.181L373.591 261.19L373.591 260.19L371.845 259.181L371.845 260.181ZM375.337 262.198L377.083 263.206L377.083 262.206L375.337 261.198L375.337 262.198ZM378.829 264.214L380.575 265.222L380.575 264.222L378.829 263.214L378.829 264.214ZM382.321 266.23L384.067 267.238L384.067 266.238L382.321 265.23L382.321 266.23ZM385.813 268.246L386.686 268.75L386.686 267.75L385.813 267.246L385.813 268.246Z" fill="black" mask="url(#)"/>
<mask maskUnits="userSpaceOnUse" x="0" y="0" width="0" height="0" fill="black">
<rect fill="white" width="0" height="0"/>
</mask>
<path d="M331.933 171.307L334.433 175.637L336.933 174.193L334.433 169.863L331.933 171.307ZM445.186 236.693L442.686 232.363L440.186 233.807L442.686 238.137L445.186 236.693ZM334.433 173.25L335.306 173.754L335.306 172.754L334.433 172.25L334.433 173.25ZM337.052 174.762L338.798 175.77L338.798 174.77L337.052 173.762L337.052 174.762ZM340.544 176.778L342.29 177.786L342.29 176.786L340.544 175.778L340.544 176.778ZM344.036 178.794L345.782 179.802L345.782 178.802L344.036 177.794L344.036 178.794ZM347.528 180.81L349.274 181.819L349.274 180.819L347.528 179.81L347.528 180.81ZM351.02 182.827L352.766 183.835L352.766 182.835L351.02 181.827L351.02 182.827ZM354.512 184.843L356.258 185.851L356.258 184.851L354.512 183.843L354.512 184.843ZM358.004 186.859L359.75 187.867L359.75 186.867L358.004 185.859L358.004 186.859ZM361.496 188.875L363.242 189.883L363.242 188.883L361.496 187.875L361.496 188.875ZM364.988 190.891L366.734 191.899L366.734 190.899L364.988 189.891L364.988 190.891ZM368.48 192.907L370.226 193.915L370.226 192.915L368.48 191.907L368.48 192.907ZM371.972 194.923L373.718 195.931L373.718 194.931L371.972 193.923L371.972 194.923ZM375.464 196.94L377.21 197.948L377.21 196.948L375.464 195.94L375.464 196.94ZM378.956 198.956L380.703 199.964L380.703 198.964L378.956 197.956L378.956 198.956ZM382.449 200.972L384.195 201.98L384.195 200.98L382.449 199.972L382.449 200.972ZM385.941 202.988L387.687 203.996L387.687 202.996L385.941 201.988L385.941 202.988ZM389.433 205.004L391.179 206.012L391.179 205.012L389.433 204.004L389.433 205.004ZM392.925 207.02L394.671 208.028L394.671 207.028L392.925 206.02L392.925 207.02ZM396.417 209.036L398.163 210.044L398.163 209.044L396.417 208.036L396.417 209.036ZM399.909 211.052L401.655 212.06L401.655 211.06L399.909 210.052L399.909 211.052ZM403.401 213.069L405.147 214.077L405.147 213.077L403.401 212.069L403.401 213.069ZM406.893 215.085L408.639 216.093L408.639 215.093L406.893 214.085L406.893 215.085ZM410.385 217.101L412.131 218.109L412.131 217.109L410.385 216.101L410.385 217.101ZM413.877 219.117L415.623 220.125L415.623 219.125L413.877 218.117L413.877 219.117ZM417.369 221.133L419.115 222.141L419.115 221.141L417.369 220.133L417.369 221.133ZM420.861 223.149L422.607 224.157L422.607 223.157L420.861 222.149L420.861 223.149ZM424.353 225.165L426.099 226.173L426.099 225.173L424.353 224.165L424.353 225.165ZM427.845 227.181L429.591 228.19L429.591 227.19L427.845 226.181L427.845 227.181ZM431.337 229.198L433.083 230.206L433.083 229.206L431.337 228.198L431.337 229.198ZM434.829 231.214L436.575 232.222L436.575 231.222L434.829 230.214L434.829 231.214ZM438.321 233.23L440.067 234.238L440.067 233.238L438.321 232.23L438.321 233.23ZM441.813 235.246L442.686 235.75L442.686 234.75L441.813 234.246L441.813 235.246Z" fill="black" mask="url(#)"/>
<mask maskUnits="userSpaceOnUse" x="0" y="0" width="0" height="0" fill="black">
<rect fill="white" width="0" height="0"/>
</mask>
<path d="M216.933 238.307L219.433 242.637L221.933 241.193L219.433 236.863L216.933 238.307ZM330.186 303.693L327.686 299.363L325.186 300.807L327.686 305.137L330.186 303.693ZM219.433 240.25L220.306 240.754L220.306 239.754L219.433 239.25L219.433 240.25ZM222.052 241.762L223.798 242.77L223.798 241.77L222.052 240.762L222.052 241.762ZM225.544 243.778L227.29 244.786L227.29 243.786L225.544 242.778L225.544 243.778ZM229.036 245.794L230.782 246.802L230.782 245.802L229.036 244.794L229.036 245.794ZM232.528 247.81L234.274 248.819L234.274 247.819L232.528 246.81L232.528 247.81ZM236.02 249.827L237.766 250.835L237.766 249.835L236.02 248.827L236.02 249.827ZM239.512 251.843L241.258 252.851L241.258 251.851L239.512 250.843L239.512 251.843ZM243.004 253.859L244.75 254.867L244.75 253.867L243.004 252.859L243.004 253.859ZM246.496 255.875L248.242 256.883L248.242 255.883L246.496 254.875L246.496 255.875ZM249.988 257.891L251.734 258.899L251.734 257.899L249.988 256.891L249.988 257.891ZM253.48 259.907L255.226 260.915L255.226 259.915L253.48 258.907L253.48 259.907ZM256.972 261.923L258.718 262.931L258.718 261.931L256.972 260.923L256.972 261.923ZM260.464 263.94L262.21 264.948L262.21 263.948L260.464 262.94L260.464 263.94ZM263.956 265.956L265.703 266.964L265.703 265.964L263.956 264.956L263.956 265.956ZM267.449 267.972L269.195 268.98L269.195 267.98L267.449 266.972L267.449 267.972ZM270.941 269.988L272.687 270.996L272.687 269.996L270.941 268.988L270.941 269.988ZM274.433 272.004L276.179 273.012L276.179 272.012L274.433 271.004L274.433 272.004ZM277.925 274.02L279.671 275.028L279.671 274.028L277.925 273.02L277.925 274.02ZM281.417 276.036L283.163 277.044L283.163 276.044L281.417 275.036L281.417 276.036ZM284.909 278.052L286.655 279.06L286.655 278.06L284.909 277.052L284.909 278.052ZM288.401 280.069L290.147 281.077L290.147 280.077L288.401 279.069L288.401 280.069ZM291.893 282.085L293.639 283.093L293.639 282.093L291.893 281.085L291.893 282.085ZM295.385 284.101L297.131 285.109L297.131 284.109L295.385 283.101L295.385 284.101ZM298.877 286.117L300.623 287.125L300.623 286.125L298.877 285.117L298.877 286.117ZM302.369 288.133L304.115 289.141L304.115 288.141L302.369 287.133L302.369 288.133ZM305.861 290.149L307.607 291.157L307.607 290.157L305.861 289.149L305.861 290.149ZM309.353 292.165L311.099 293.173L311.099 292.173L309.353 291.165L309.353 292.165ZM312.845 294.181L314.591 295.19L314.591 294.19L312.845 293.181L312.845 294.181ZM316.337 296.198L318.083 297.206L318.083 296.206L316.337 295.198L316.337 296.198ZM319.829 298.214L321.575 299.222L321.575 298.222L319.829 297.214L319.829 298.214ZM323.321 300.23L325.067 301.238L325.067 300.238L323.321 299.23L323.321 300.23ZM326.813 302.246L327.686 302.75L327.686 301.75L326.813 301.246L326.813 302.246Z" fill="black" mask="url(#)"/>
<path d="M514.971 211.395L503.627 217.963L418.541 168.707L429.885 162.14L514.971 211.395Z" fill="#F4F4F4"/>
<path d="M450.78 93.1816L435.728 101.897L477.118 125.855L492.164 117.14L450.78 93.1816Z" fill="#B0F2FF" stroke="#313131" stroke-linecap="round" stroke-linejoin="round"/>
<path d="M420.683 110.605L435.728 101.897L450.78 110.605L435.728 119.32L420.683 110.605Z" fill="#B0F2FF" stroke="#313131" stroke-linecap="round" stroke-linejoin="round"/>
<path d="M405.63 119.32L420.682 110.605L435.728 119.32L420.682 128.028L405.63 119.32Z" fill="#B0F2FF" stroke="#313131" stroke-linecap="round" stroke-linejoin="round"/>
<path d="M477.118 178.125L405.63 136.743V119.32L420.683 128.028V110.605L435.728 119.32V101.897L477.118 125.855V104.071L518.502 175.944L477.118 199.902V178.125Z" fill="#33B6FF" stroke="#313131" stroke-linecap="round" stroke-linejoin="round"/>
<path d="M492.166 95.3556L533.552 167.229L518.503 175.941L477.116 104.067L492.166 95.3556Z" fill="#B0F2FF" stroke="#313131" stroke-linecap="round" stroke-linejoin="round"/>
<path d="M400.842 96.4654L415.894 87.757L400.842 79.042L385.796 87.757L400.842 96.4654Z" fill="#B0F2FF" stroke="#313131" stroke-linecap="round" stroke-linejoin="round"/>
<path d="M385.796 105.18L400.842 113.889V96.4652L385.796 87.7568V105.18Z" fill="#33B6FF" stroke="#313131" stroke-linecap="round" stroke-linejoin="round"/>
<path d="M400.842 113.889L415.894 105.18V87.7568L400.842 96.4652V113.889Z" fill="#33B6FF" stroke="#313131" stroke-linecap="round" stroke-linejoin="round"/>
<path d="M426.951 72.0213L435.617 67.0038L426.951 61.9863L418.285 67.0038L426.951 72.0213Z" fill="#B0F2FF" stroke="#313131" stroke-linecap="round" stroke-linejoin="round"/>
<path d="M418.285 77.0389L426.951 82.063V72.0214L418.285 67.0039V77.0389Z" fill="#33B6FF" stroke="#313131" stroke-linecap="round" stroke-linejoin="round"/>
<path d="M426.951 82.063L435.617 77.0389V67.0039L426.951 72.0214V82.063Z" fill="#33B6FF" stroke="#313131" stroke-linecap="round" stroke-linejoin="round"/>
<path d="M370.666 110.605L379.338 105.588L370.666 100.57L362 105.588L370.666 110.605Z" fill="#B0F2FF" stroke="#313131" stroke-linecap="round" stroke-linejoin="round"/>
<path d="M362 115.623L370.666 120.64V110.605L362 105.588V115.623Z" fill="#33B6FF" stroke="#313131" stroke-linecap="round" stroke-linejoin="round"/>
<path d="M370.666 120.64L379.338 115.623V105.588L370.666 110.605V120.64Z" fill="#33B6FF" stroke="#313131" stroke-linecap="round" stroke-linejoin="round"/>
<path d="M370.666 76.7631L375.847 73.7618L370.666 70.7671L365.485 73.7618L370.666 76.7631Z" fill="#B0F2FF" stroke="#313131" stroke-linecap="round" stroke-linejoin="round"/>
<path d="M365.485 79.7644L370.666 82.7656V76.763L365.485 73.7617V79.7644Z" fill="#33B6FF" stroke="#313131" stroke-linecap="round" stroke-linejoin="round"/>
<path d="M370.666 82.7656L375.847 79.7644V73.7617L370.666 76.763V82.7656Z" fill="#33B6FF" stroke="#313131" stroke-linecap="round" stroke-linejoin="round"/>
<path d="M393.552 56.9886L405.63 49.9943L393.552 43L381.474 49.9943L393.552 56.9886Z" fill="#B0F2FF" stroke="#313131" stroke-linecap="round" stroke-linejoin="round"/>
<path d="M381.474 63.983L393.552 70.9707V56.9887L381.474 49.9944V63.983Z" fill="#33B6FF" stroke="#313131" stroke-linecap="round" stroke-linejoin="round"/>
<path d="M393.552 70.9707L405.63 63.983V49.9944L393.552 56.9887V70.9707Z" fill="#33B6FF" stroke="#313131" stroke-linecap="round" stroke-linejoin="round"/>
<path d="M100 274L134.641 254L169.282 274L134.641 294L100 274Z" fill="#B0F2FF"/>
<path d="M519 229L553.641 209L588.282 229L553.641 249L519 229Z" fill="#FFEB55"/>
<path d="M183 110L234.962 80L286.923 110L234.962 140L183 110Z" fill="#E2E2E4"/>
<path d="M386 378L437.962 348L489.923 378L437.962 408L386 378Z" fill="#E2E2E4"/>
<defs>
<clipPath id="clip0_4793_171808">
<rect width="28" height="28" fill="white" transform="matrix(0.866025 -0.5 0.866025 0.5 288 152)"/>
</clipPath>
<clipPath id="clip1_4793_171808">
<rect width="28" height="28" fill="white" transform="matrix(0.866025 -0.5 0.866025 0.5 445 250)"/>
</clipPath>
<clipPath id="clip2_4793_171808">
<rect width="28" height="28" fill="white" transform="matrix(0.866025 -0.5 0.866025 0.5 229 186)"/>
</clipPath>
<clipPath id="clip3_4793_171808">
<rect width="28" height="28" fill="white" transform="matrix(0.866025 -0.5 0.866025 0.5 387 285)"/>
</clipPath>
<clipPath id="clip4_4793_171808">
<rect width="23.3333" height="14" fill="white" transform="matrix(0.866025 -0.5 0.866025 0.5 395.083 287.333)"/>
</clipPath>
<clipPath id="clip5_4793_171808">
<rect width="28" height="28" fill="white" transform="matrix(0.866025 -0.5 0.866025 0.5 170 220)"/>
</clipPath>
<clipPath id="clip6_4793_171808">
<rect width="28" height="28" fill="white" transform="matrix(0.866025 -0.5 0.866025 0.5 328 319)"/>
</clipPath>
</defs>
</svg>
