<svg width="249" height="53" viewBox="0 0 249 53" fill="none" xmlns="http://www.w3.org/2000/svg">
<path d="M234.11 43.9709C234.11 41.3309 234.572 39.4169 235.496 38.2289C236.486 36.9749 238.532 36.3479 241.634 36.3479C244.67 36.3479 246.65 36.9749 247.574 38.2289C248.498 39.4169 248.96 41.3309 248.96 43.9709C248.96 46.7429 248.498 48.7229 247.574 49.9109C246.65 51.0329 244.637 51.5939 241.535 51.5939C238.499 51.5939 236.486 51.0329 235.496 49.9109C234.572 48.7229 234.11 46.7429 234.11 43.9709Z" fill="#6366F1"/>
<path d="M186.187 50.9999V1.49989H191.929L195.196 6.44989C197.77 4.40389 200.575 2.88589 203.611 1.89589C206.647 0.90589 210.079 0.410889 213.907 0.410889C218.527 0.410889 222.058 1.20289 224.5 2.78689C226.942 4.30489 228.163 6.54889 228.163 9.51889V50.9999H215.986V10.4099H205.69C202.918 10.4099 201.004 10.7729 199.948 11.4989C198.892 12.1589 198.364 13.4789 198.364 15.4589V50.9999H186.187Z" fill="#6366F1"/>
<path d="M150.071 52.0889C144.527 52.0889 140.534 50.9009 138.092 48.5249C135.65 46.1489 134.429 42.2549 134.429 36.8429C134.429 33.4769 134.792 30.7709 135.518 28.7249C136.244 26.6129 137.597 24.9959 139.577 23.8739C141.557 22.7519 144.395 21.9929 148.091 21.5969C151.787 21.1349 156.605 20.9039 162.545 20.9039H167.396V28.1309H153.338C150.368 28.1309 148.322 28.5269 147.2 29.3189C146.078 30.0449 145.517 31.4639 145.517 33.5759V43.1789H156.704C159.674 43.1789 161.687 42.8159 162.743 42.0899C163.865 41.3639 164.426 39.9449 164.426 37.8329V10.7069C162.314 10.0469 159.377 9.71689 155.615 9.71689C152.909 9.71689 150.071 9.91489 147.101 10.3109C144.197 10.7069 141.227 11.3339 138.191 12.1919L136.607 3.47989C138.455 2.81989 140.501 2.25889 142.745 1.79689C145.055 1.33489 147.464 1.00489 149.972 0.80689C152.48 0.54289 154.922 0.410889 157.298 0.410889C161.984 0.410889 165.746 0.90589 168.584 1.89589C171.422 2.81989 173.468 4.37089 174.722 6.54889C175.976 8.66089 176.603 11.4989 176.603 15.0629V50.9999H170.762L167.594 46.0499C165.218 48.0959 162.578 49.6139 159.674 50.6039C156.836 51.5939 153.635 52.0889 150.071 52.0889Z" fill="#6366F1"/>
<path d="M92.0338 15.2609C92.0338 9.9809 93.6178 6.11989 96.7858 3.67789C99.9538 1.23589 104.871 0.0148926 111.537 0.0148926C114.705 0.0148926 117.741 0.212893 120.645 0.608896C123.549 0.938896 126.387 1.4669 129.159 2.19289L127.575 10.9049C125.925 10.4429 124.011 10.0799 121.833 9.8159C119.721 9.55189 117.642 9.4199 115.596 9.4199C113.616 9.4199 111.702 9.5189 109.854 9.7169C108.006 9.8489 106.389 10.0469 105.003 10.3109V20.1119C110.481 20.8379 114.936 21.6299 118.368 22.4879C121.866 23.2799 124.572 24.3029 126.486 25.5569C128.4 26.7449 129.72 28.2299 130.446 30.0119C131.238 31.7939 131.634 34.0379 131.634 36.7439C131.634 40.4399 130.908 43.4759 129.456 45.8519C128.004 48.1619 125.694 49.8449 122.526 50.9009C119.358 51.9569 115.134 52.4849 109.854 52.4849C106.752 52.4849 103.617 52.2209 100.449 51.6929C97.2808 51.1649 94.1458 50.4389 91.0438 49.5149L92.8258 40.1099C97.8418 42.0899 103.254 43.0799 109.062 43.0799C110.778 43.0799 112.329 43.0139 113.715 42.8819C115.167 42.6839 116.85 42.3539 118.764 41.8919V31.9919C112.956 31.1999 108.27 30.4409 104.706 29.7149C101.208 28.9229 98.5348 27.9329 96.6868 26.7449C94.9048 25.5569 93.6838 24.0389 93.0238 22.1909C92.3638 20.3429 92.0338 18.0329 92.0338 15.2609Z" fill="#6366F1"/>
<path d="M49.4407 15.2609C49.4407 9.9809 51.0247 6.11989 54.1927 3.67789C57.3607 1.23589 62.2777 0.0148926 68.9437 0.0148926C72.1117 0.0148926 75.1477 0.212893 78.0517 0.608896C80.9557 0.938896 83.7937 1.4669 86.5657 2.19289L84.9817 10.9049C83.3317 10.4429 81.4177 10.0799 79.2397 9.8159C77.1277 9.55189 75.0487 9.4199 73.0027 9.4199C71.0227 9.4199 69.1087 9.5189 67.2607 9.7169C65.4127 9.8489 63.7957 10.0469 62.4097 10.3109V20.1119C67.8877 20.8379 72.3427 21.6299 75.7747 22.4879C79.2727 23.2799 81.9787 24.3029 83.8927 25.5569C85.8067 26.7449 87.1267 28.2299 87.8527 30.0119C88.6447 31.7939 89.0407 34.0379 89.0407 36.7439C89.0407 40.4399 88.3147 43.4759 86.8627 45.8519C85.4107 48.1619 83.1007 49.8449 79.9327 50.9009C76.7647 51.9569 72.5407 52.4849 67.2607 52.4849C64.1587 52.4849 61.0237 52.2209 57.8557 51.6929C54.6877 51.1649 51.5527 50.4389 48.4507 49.5149L50.2327 40.1099C55.2487 42.0899 60.6607 43.0799 66.4687 43.0799C68.1847 43.0799 69.7357 43.0139 71.1217 42.8819C72.5737 42.6839 74.2567 42.3539 76.1707 41.8919V31.9919C70.3627 31.1999 65.6767 30.4409 62.1127 29.7149C58.6147 28.9229 55.9417 27.9329 54.0937 26.7449C52.3117 25.5569 51.0907 24.0389 50.4307 22.1909C49.7707 20.3429 49.4407 18.0329 49.4407 15.2609Z" fill="#6366F1"/>
<path d="M16.394 52.0889C10.85 52.0889 6.85695 50.9009 4.41495 48.5249C1.97295 46.1489 0.751953 42.2549 0.751953 36.8429C0.751953 33.4769 1.11495 30.7709 1.84095 28.7249C2.56695 26.6129 3.91995 24.9959 5.89995 23.8739C7.87995 22.7519 10.718 21.9929 14.414 21.5969C18.11 21.1349 22.928 20.9039 28.868 20.9039H33.719V28.1309H19.661C16.691 28.1309 14.645 28.5269 13.523 29.3189C12.401 30.0449 11.84 31.4639 11.84 33.5759V43.1789H23.027C25.997 43.1789 28.01 42.8159 29.066 42.0899C30.188 41.3639 30.749 39.9449 30.749 37.8329V10.7069C28.637 10.0469 25.7 9.71689 21.938 9.71689C19.232 9.71689 16.394 9.91489 13.424 10.3109C10.52 10.7069 7.54995 11.3339 4.51395 12.1919L2.92995 3.47989C4.77795 2.81989 6.82395 2.25889 9.06795 1.79689C11.378 1.33489 13.787 1.00489 16.295 0.80689C18.803 0.54289 21.245 0.410889 23.621 0.410889C28.307 0.410889 32.069 0.90589 34.907 1.89589C37.745 2.81989 39.791 4.37089 41.045 6.54889C42.299 8.66089 42.926 11.4989 42.926 15.0629V50.9999H37.085L33.917 46.0499C31.541 48.0959 28.901 49.6139 25.997 50.6039C23.159 51.5939 19.958 52.0889 16.394 52.0889Z" fill="#6366F1"/>
</svg>
