<svg width="62" height="62" viewBox="0 0 62 62" fill="none" xmlns="http://www.w3.org/2000/svg">
<rect width="62" height="62" rx="8" fill="#D43C34"/>
<path d="M40.066 29.8397L40.049 29.8313V29.7127C44.4953 28.3746 47.5358 25.1478 47.5358 20.278C47.5358 12.4186 40.8367 9.4375 34.3323 9.4375H12.3125V10.0812L14.523 11.9613C17.1823 14.1294 17.521 14.5444 17.521 16.5008V52.5625H33.062C41.2093 52.5625 49.6875 49.7276 49.6875 40.3438C49.7891 34.9658 45.4185 30.3394 40.066 29.8397ZM25.1856 16.0096H31.5121C35.7975 16.0096 37.1187 16.6024 38.4145 17.8389C39.3969 18.8213 39.922 20.1679 39.8542 21.5569C39.8881 22.9119 39.3461 24.2162 38.3721 25.1563C37.1018 26.3758 35.3571 26.9687 32.1812 26.9687H25.1856V16.0096ZM32.2489 45.982V45.9735H25.1856V33.5577H32.5538C38.7617 33.5577 41.6836 35.1414 41.6836 39.647C41.6836 45.3129 36.1956 45.982 32.2489 45.982Z" fill="white"/>
</svg>
