<svg width="62" height="62" viewBox="0 0 62 62" fill="none" xmlns="http://www.w3.org/2000/svg">
<rect width="62" height="62" rx="8" fill="#EA2384"/>
<path d="M10.2812 30.8305L22.5412 18.1261C29.0417 11.3358 39.786 11.1 46.5728 17.6038C46.7412 17.7723 46.9265 17.9408 47.0949 18.1261C49.3178 20.4851 50.884 23.2652 51.625 26.2139C51.1534 25.2534 50.5304 24.3772 49.8062 23.6022C45.9329 19.5584 39.685 19.5584 35.7274 23.6022L28.7218 30.8474L35.7274 38.0927C39.6008 42.1365 45.8487 42.1365 49.8062 38.0927C50.5641 37.3344 51.1703 36.4415 51.625 35.4641C50.884 38.4128 49.402 41.2772 47.0949 43.535C40.3418 50.6117 29.3111 50.6117 22.5581 43.535L10.2812 30.8305Z" fill="white"/>
<path d="M51.6082 30.8305C51.6082 27.3764 48.9811 24.5963 45.5961 24.5963C42.2953 24.5963 39.584 27.3764 39.584 30.8305C39.584 34.2847 42.2112 37.0648 45.5961 37.0648C48.8969 36.9806 51.6082 34.2004 51.6082 30.8305Z" fill="white"/>
</svg>
